<svg width="1400" height="1078" viewBox="0 0 1400 1078" fill="none" xmlns="http://www.w3.org/2000/svg">
<foreignObject x="-154" y="-154" width="1708" height="1385.66"><div xmlns="http://www.w3.org/1999/xhtml" style="backdrop-filter:blur(77px);clip-path:url(#bgblur_0_559_934_clip_path);height:100%;width:100%"></div></foreignObject><g data-figma-bg-blur-radius="154">
<mask id="path-1-inside-1_559_934" fill="white">
<path d="M513.925 0C557.167 0 598.271 18.8108 626.537 51.5361C654.803 84.2615 695.907 103.072 739.15 103.072H1231.61C1324.61 103.072 1400 178.461 1400 271.457V909.278C1400 1002.27 1324.61 1077.66 1231.61 1077.66H168.385C75.3886 1077.66 0 1002.27 0 909.278V168.385C0 75.3884 75.3885 0 168.385 0H513.925Z"/>
</mask>
<path d="M513.925 0C557.167 0 598.271 18.8108 626.537 51.5361C654.803 84.2615 695.907 103.072 739.15 103.072H1231.61C1324.61 103.072 1400 178.461 1400 271.457V909.278C1400 1002.27 1324.61 1077.66 1231.61 1077.66H168.385C75.3886 1077.66 0 1002.27 0 909.278V168.385C0 75.3884 75.3885 0 168.385 0H513.925Z" fill="url(#paint0_linear_559_934)" fill-opacity="0.2"/>
<path d="M739.15 103.072V112.781H1231.61V103.072V93.3635H739.15V103.072ZM1400 271.457H1390.29V909.278H1400H1409.71V271.457H1400ZM1231.61 1077.66V1067.95H168.385V1077.66V1087.37H1231.61V1077.66ZM0 909.278H9.70874V168.385H0H-9.70874V909.278H0ZM168.385 0V9.70874H513.925V0V-9.70874H168.385V0ZM0 168.385H9.70874C9.70874 80.7504 80.7505 9.70874 168.385 9.70874V0V-9.70874C70.0266 -9.70874 -9.70874 70.0264 -9.70874 168.385H0ZM168.385 1077.66V1067.95C80.7506 1067.95 9.70874 996.913 9.70874 909.278H0H-9.70874C-9.70874 1007.64 70.0266 1087.37 168.385 1087.37V1077.66ZM1400 909.278H1390.29C1390.29 996.912 1319.25 1067.95 1231.61 1067.95V1077.66V1087.37C1329.97 1087.37 1409.71 1007.64 1409.71 909.278H1400ZM1231.61 103.072V112.781C1319.25 112.781 1390.29 183.823 1390.29 271.457H1400H1409.71C1409.71 173.099 1329.97 93.3635 1231.61 93.3635V103.072ZM626.537 51.5361L619.19 57.8824C649.3 92.7429 693.086 112.781 739.15 112.781V103.072V93.3635C698.728 93.3635 660.306 75.7801 633.885 45.1899L626.537 51.5361ZM626.537 51.5361L633.885 45.1899C603.774 10.3294 559.989 -9.70874 513.925 -9.70874V0V9.70874C554.346 9.70874 592.768 27.2922 619.19 57.8824L626.537 51.5361Z" fill="#F9F9F9" mask="url(#path-1-inside-1_559_934)"/>
</g>
<mask id="path-3-inside-2_559_934" fill="white">
<path d="M503.555 19.3962C547.09 19.3962 588.29 39.0857 615.636 72.9602C642.983 106.835 684.183 126.524 727.718 126.524H1228.43C1312.14 126.524 1380 194.384 1380 278.094V914.699C1380 998.409 1312.14 1066.27 1228.43 1066.27H171.57C87.8603 1066.27 20 998.409 20 914.699V170.966C20 87.2564 87.8602 19.3962 171.57 19.3962H503.555Z"/>
</mask>
<path d="M615.636 72.9602L616.414 72.3321L615.636 72.9602ZM20 170.966H19V177.853H20H21V170.966H20ZM20 191.625H19V205.398H20H21V191.625H20ZM20 219.171H19V232.944H20H21V219.171H20ZM20 246.717H19V260.49H20H21V246.717H20ZM20 274.262H19V288.035H20H21V274.262H20ZM20 301.808H19V315.581H20H21V301.808H20ZM20 329.354H19V343.127H20H21V329.354H20ZM20 356.899H19V370.672H20H21V356.899H20ZM20 384.445H19V398.218H20H21V384.445H20ZM20 411.991H19V425.764H20H21V411.991H20ZM20 439.536H19V453.309H20H21V439.536H20ZM20 467.082H19V480.855H20H21V467.082H20ZM20 494.628H19V508.401H20H21V494.628H20ZM20 522.173H19V535.946H20H21V522.173H20ZM20 549.719H19V563.492H20H21V549.719H20ZM20 577.265H19V591.038H20H21V577.265H20ZM20 604.81H19V618.583H20H21V604.81H20ZM20 632.356H19V646.129H20H21V632.356H20ZM20 659.902H19V673.674H20H21V659.902H20ZM20 687.447H19V701.22H20H21V687.447H20ZM20 714.993H19V728.766H20H21V714.993H20ZM20 742.539H19V756.311H20H21V742.539H20ZM20 770.084H19V783.857H20H21V770.084H20ZM20 797.63H19V811.403H20H21V797.63H20ZM20 825.176H19V838.948H20H21V825.176H20ZM20 852.721H19V866.494H20H21V852.721H20ZM20 880.267H19V894.04H20H21V880.267H20ZM20 907.813H19V914.699H20H21V907.813H20ZM20 914.699H19C19 916.931 19.0479 919.152 19.1428 921.36L20.1419 921.317L21.141 921.274C21.0473 919.094 21 916.902 21 914.699H20ZM21.2811 934.496L20.2895 934.625C20.8677 939.057 21.6361 943.43 22.5864 947.735L23.5629 947.519L24.5393 947.304C23.6016 943.056 22.8433 938.741 22.2727 934.366L21.2811 934.496ZM26.9769 960.291L26.0231 960.592C27.363 964.845 28.8841 969.018 30.5775 973.102L31.5012 972.718L32.425 972.335C30.7539 968.306 29.2529 964.188 27.9307 959.991L26.9769 960.291ZM37.0982 984.701L36.2115 985.163C38.2694 989.108 40.4946 992.952 42.8777 996.685L43.7206 996.147L44.5635 995.609C42.2115 991.925 40.0156 988.132 37.9848 984.238L37.0982 984.701ZM51.3145 1006.97L50.5216 1007.58C53.2282 1011.1 56.0851 1014.5 59.0826 1017.77L59.8197 1017.1L60.5568 1016.42C57.5983 1013.2 54.7787 1009.84 52.1074 1006.36L51.3145 1006.97ZM69.1708 1026.45L68.495 1027.19C71.7646 1030.18 75.1652 1033.04 78.6873 1035.75L79.2967 1034.95L79.906 1034.16C76.4298 1031.49 73.0735 1028.67 69.8466 1025.71L69.1708 1026.45ZM90.1223 1042.55L89.5842 1043.39C93.3173 1045.77 97.161 1048 101.106 1050.06L101.568 1049.17L102.031 1048.28C98.1378 1046.25 94.3446 1044.06 90.6604 1041.71L90.1223 1042.55ZM113.551 1054.77L113.168 1055.69C117.251 1057.39 121.424 1058.91 125.678 1060.25L125.978 1059.29L126.279 1058.34C122.081 1057.02 117.964 1055.52 113.934 1053.84L113.551 1054.77ZM138.75 1062.71L138.535 1063.68C142.839 1064.63 147.212 1065.4 151.644 1065.98L151.774 1064.99L151.903 1064C147.529 1063.43 143.213 1062.67 138.966 1061.73L138.75 1062.71ZM164.952 1066.13L164.909 1067.13C167.118 1067.22 169.338 1067.27 171.57 1067.27V1066.27V1065.27C169.367 1065.27 167.175 1065.22 164.995 1065.13L164.952 1066.13ZM171.57 1066.27V1067.27H178.523V1066.27V1065.27H171.57V1066.27ZM192.429 1066.27V1067.27H206.335V1066.27V1065.27H192.429V1066.27ZM220.241 1066.27V1067.27H234.147V1066.27V1065.27H220.241V1066.27ZM248.053 1066.27V1067.27H261.959V1066.27V1065.27H248.053V1066.27ZM275.865 1066.27V1067.27H289.772V1066.27V1065.27H275.865V1066.27ZM303.678 1066.27V1067.27H317.584V1066.27V1065.27H303.678V1066.27ZM331.49 1066.27V1067.27H345.396V1066.27V1065.27H331.49V1066.27ZM359.302 1066.27V1067.27H373.208V1066.27V1065.27H359.302V1066.27ZM387.114 1066.27V1067.27H401.02V1066.27V1065.27H387.114V1066.27ZM414.926 1066.27V1067.27H428.832V1066.27V1065.27H414.926V1066.27ZM442.738 1066.27V1067.27H456.644V1066.27V1065.27H442.738V1066.27ZM470.55 1066.27V1067.27H484.456V1066.27V1065.27H470.55V1066.27ZM498.362 1066.27V1067.27H512.268V1066.27V1065.27H498.362V1066.27ZM526.174 1066.27V1067.27H540.08V1066.27V1065.27H526.174V1066.27ZM553.986 1066.27V1067.27H567.892V1066.27V1065.27H553.986V1066.27ZM581.798 1066.27V1067.27H595.704V1066.27V1065.27H581.798V1066.27ZM609.611 1066.27V1067.27H623.517V1066.27V1065.27H609.611V1066.27ZM637.423 1066.27V1067.27H651.329V1066.27V1065.27H637.423V1066.27ZM665.235 1066.27V1067.27H679.141V1066.27V1065.27H665.235V1066.27ZM693.047 1066.27V1067.27H706.953V1066.27V1065.27H693.047V1066.27ZM720.859 1066.27V1067.27H734.765V1066.27V1065.27H720.859V1066.27ZM748.671 1066.27V1067.27H762.577V1066.27V1065.27H748.671V1066.27ZM776.483 1066.27V1067.27H790.389V1066.27V1065.27H776.483V1066.27ZM804.295 1066.27V1067.27H818.201V1066.27V1065.27H804.295V1066.27ZM832.107 1066.27V1067.27H846.013V1066.27V1065.27H832.107V1066.27ZM859.919 1066.27V1067.27H873.826V1066.27V1065.27H859.919V1066.27ZM887.732 1066.27V1067.27H901.638V1066.27V1065.27H887.732V1066.27ZM915.544 1066.27V1067.27H929.45V1066.27V1065.27H915.544V1066.27ZM943.356 1066.27V1067.27H957.262V1066.27V1065.27H943.356V1066.27ZM971.168 1066.27V1067.27H985.074V1066.27V1065.27H971.168V1066.27ZM998.98 1066.27V1067.27H1012.89V1066.27V1065.27H998.98V1066.27ZM1026.79 1066.27V1067.27H1040.7V1066.27V1065.27H1026.79V1066.27ZM1054.6 1066.27V1067.27H1068.51V1066.27V1065.27H1054.6V1066.27ZM1082.42 1066.27V1067.27H1096.32V1066.27V1065.27H1082.42V1066.27ZM1110.23 1066.27V1067.27H1124.13V1066.27V1065.27H1110.23V1066.27ZM1138.04 1066.27V1067.27H1151.95V1066.27V1065.27H1138.04V1066.27ZM1165.85 1066.27V1067.27H1179.76V1066.27V1065.27H1165.85V1066.27ZM1193.67 1066.27V1067.27H1207.57V1066.27V1065.27H1193.67V1066.27ZM1221.48 1066.27V1067.27H1228.43V1066.27V1065.27H1221.48V1066.27ZM1228.43 1066.27V1067.27C1230.66 1067.27 1232.88 1067.22 1235.09 1067.13L1235.05 1066.13L1235.01 1065.13C1232.83 1065.22 1230.63 1065.27 1228.43 1065.27V1066.27ZM1248.23 1064.99L1248.36 1065.98C1252.79 1065.4 1257.16 1064.63 1261.47 1063.68L1261.25 1062.71L1261.03 1061.73C1256.79 1062.67 1252.47 1063.43 1248.1 1064L1248.23 1064.99ZM1274.02 1059.29L1274.32 1060.25C1278.58 1058.91 1282.75 1057.39 1286.83 1055.69L1286.45 1054.77L1286.07 1053.84C1282.04 1055.52 1277.92 1057.02 1273.72 1058.34L1274.02 1059.29ZM1298.43 1049.17L1298.89 1050.06C1302.84 1048 1306.68 1045.77 1310.42 1043.39L1309.88 1042.55L1309.34 1041.71C1305.66 1044.06 1301.86 1046.25 1297.97 1048.28L1298.43 1049.17ZM1320.7 1034.95L1321.31 1035.75C1324.83 1033.04 1328.24 1030.18 1331.51 1027.19L1330.83 1026.45L1330.15 1025.71C1326.93 1028.67 1323.57 1031.49 1320.09 1034.16L1320.7 1034.95ZM1340.18 1017.1L1340.92 1017.77C1343.91 1014.5 1346.77 1011.1 1349.48 1007.58L1348.69 1006.97L1347.89 1006.36C1345.22 1009.84 1342.4 1013.2 1339.44 1016.42L1340.18 1017.1ZM1356.28 996.147L1357.12 996.685C1359.51 992.952 1361.73 989.108 1363.79 985.164L1362.9 984.701L1362.02 984.239C1359.98 988.132 1357.79 991.925 1355.44 995.609L1356.28 996.147ZM1368.5 972.719L1369.42 973.102C1371.12 969.018 1372.64 964.845 1373.98 960.592L1373.02 960.291L1372.07 959.991C1370.75 964.188 1369.25 968.306 1367.58 972.336L1368.5 972.719ZM1376.44 947.519L1377.41 947.735C1378.36 943.43 1379.13 939.058 1379.71 934.625L1378.72 934.496L1377.73 934.367C1377.16 938.741 1376.4 943.056 1375.46 947.304L1376.44 947.519ZM1379.86 921.318L1380.86 921.36C1380.95 919.152 1381 916.931 1381 914.699H1380H1379C1379 916.903 1378.95 919.095 1378.86 921.275L1379.86 921.318ZM1380 914.699H1381V907.78H1380H1379V914.699H1380ZM1380 893.941H1381V880.101H1380H1379V893.941H1380ZM1380 866.262H1381V852.423H1380H1379V866.262H1380ZM1380 838.584H1381V824.744H1380H1379V838.584H1380ZM1380 810.905H1381V797.066H1380H1379V810.905H1380ZM1380 783.227H1381V769.387H1380H1379V783.227H1380ZM1380 755.548H1381V741.709H1380H1379V755.548H1380ZM1380 727.87H1381V714.03H1380H1379V727.87H1380ZM1380 700.191H1381V686.352H1380H1379V700.191H1380ZM1380 672.513H1381V658.673H1380H1379V672.513H1380ZM1380 644.834H1381V630.995H1380H1379V644.834H1380ZM1380 617.156H1381V603.316H1380H1379V617.156H1380ZM1380 589.477H1381V575.638H1380H1379V589.477H1380ZM1380 561.799H1381V547.959H1380H1379V561.799H1380ZM1380 534.12H1381V520.281H1380H1379V534.12H1380ZM1380 506.442H1381V492.603H1380H1379V506.442H1380ZM1380 478.763H1381V464.924H1380H1379V478.763H1380ZM1380 451.085H1381V437.246H1380H1379V451.085H1380ZM1380 423.406H1381V409.567H1380H1379V423.406H1380ZM1380 395.728H1381V381.889H1380H1379V395.728H1380ZM1380 368.049H1381V354.21H1380H1379V368.049H1380ZM1380 340.371H1381V326.532H1380H1379V340.371H1380ZM1380 312.693H1381V298.853H1380H1379V312.693H1380ZM1380 285.014H1381V278.094H1380H1379V285.014H1380ZM1380 278.094H1381C1381 275.862 1380.95 273.642 1380.86 271.433L1379.86 271.476L1378.86 271.519C1378.95 273.699 1379 275.891 1379 278.094H1380ZM1378.72 258.298L1379.71 258.168C1379.13 253.736 1378.36 249.363 1377.41 245.059L1376.44 245.274L1375.46 245.49C1376.4 249.738 1377.16 254.053 1377.73 258.427L1378.72 258.298ZM1373.02 232.502L1373.98 232.202C1372.64 227.948 1371.12 223.775 1369.42 219.692L1368.5 220.075L1367.58 220.458C1369.25 224.488 1370.75 228.606 1372.07 232.803L1373.02 232.502ZM1362.9 208.093L1363.79 207.63C1361.73 203.685 1359.51 199.841 1357.12 196.108L1356.28 196.646L1355.44 197.185C1357.79 200.869 1359.98 204.662 1362.02 208.555L1362.9 208.093ZM1348.69 185.821L1349.48 185.211C1346.77 181.689 1343.91 178.289 1340.92 175.019L1340.18 175.695L1339.44 176.371C1342.4 179.598 1345.22 182.954 1347.89 186.43L1348.69 185.821ZM1330.83 166.344L1331.5 165.607C1328.24 162.609 1324.83 159.752 1321.31 157.046L1320.7 157.839L1320.09 158.632C1323.57 161.303 1326.93 164.122 1330.15 167.081L1330.83 166.344ZM1309.88 150.245L1310.42 149.402C1306.68 147.019 1302.84 144.794 1298.89 142.736L1298.43 143.622L1297.97 144.509C1301.86 146.54 1305.66 148.736 1309.34 151.088L1309.88 150.245ZM1286.45 138.025L1286.83 137.102C1282.75 135.408 1278.58 133.887 1274.32 132.547L1274.02 133.501L1273.72 134.455C1277.92 135.777 1282.04 137.278 1286.07 138.949L1286.45 138.025ZM1261.25 130.087L1261.47 129.111C1257.16 128.16 1252.79 127.392 1248.36 126.814L1248.23 127.805L1248.1 128.797C1252.47 129.367 1256.79 130.126 1261.03 131.064L1261.25 130.087ZM1235.05 126.666L1235.09 125.667C1232.88 125.572 1230.66 125.524 1228.43 125.524V126.524V127.524C1230.63 127.524 1232.82 127.571 1235 127.665L1235.05 126.666ZM1228.43 126.524V125.524H1221.48V126.524V127.524H1228.43V126.524ZM1207.57 126.524V125.524H1193.66V126.524V127.524H1207.57V126.524ZM1179.75 126.524V125.524H1165.84V126.524V127.524H1179.75V126.524ZM1151.93 126.524V125.524H1138.02V126.524V127.524H1151.93V126.524ZM1124.11 126.524V125.524H1110.21V126.524V127.524H1124.11V126.524ZM1096.3 126.524V125.524H1082.39V126.524V127.524H1096.3V126.524ZM1068.48 126.524V125.524H1054.57V126.524V127.524H1068.48V126.524ZM1040.66 126.524V125.524H1026.75V126.524V127.524H1040.66V126.524ZM1012.85 126.524V125.524H998.937V126.524V127.524H1012.85V126.524ZM985.028 126.524V125.524H971.12V126.524V127.524H985.028V126.524ZM957.211 126.524V125.524H943.302V126.524V127.524H957.211V126.524ZM929.394 126.524V125.524H915.485V126.524V127.524H929.394V126.524ZM901.576 126.524V125.524H887.668V126.524V127.524H901.576V126.524ZM873.759 126.524V125.524H859.85V126.524V127.524H873.759V126.524ZM845.942 126.524V125.524H832.033V126.524V127.524H845.942V126.524ZM818.124 126.524V125.524H804.216V126.524V127.524H818.124V126.524ZM790.307 126.524V125.524H776.398V126.524V127.524H790.307V126.524ZM762.49 126.524V125.524H748.581V126.524V127.524H762.49V126.524ZM734.672 126.524V125.524H727.718V126.524V127.524H734.672V126.524ZM727.718 126.524V125.524C725.586 125.524 723.46 125.477 721.341 125.382L721.297 126.381L721.252 127.38C723.401 127.476 725.557 127.524 727.718 127.524V126.524ZM708.509 125.239L708.642 124.248C704.416 123.679 700.23 122.924 696.095 121.986L695.874 122.962L695.653 123.937C699.845 124.887 704.09 125.653 708.376 126.23L708.509 125.239ZM683.491 119.567L683.798 118.616C679.748 117.309 675.761 115.823 671.851 114.164L671.46 115.084L671.07 116.005C675.035 117.687 679.077 119.194 683.184 120.519L683.491 119.567ZM659.876 109.548L660.347 108.666C656.599 106.665 652.939 104.497 649.378 102.166L648.83 103.003L648.283 103.84C651.894 106.203 655.605 108.402 659.405 110.43L659.876 109.548ZM638.411 95.5L639.031 94.7154C635.705 92.087 632.487 89.3043 629.39 86.3729L628.702 87.0992L628.015 87.8254C631.156 90.7979 634.418 93.6195 637.791 96.2846L638.411 95.5ZM619.781 77.8667L620.53 77.2045C619.126 75.6151 617.753 73.9907 616.414 72.3321L615.636 72.9602L614.858 73.5884C616.216 75.2701 617.607 76.9172 619.032 78.5289L619.781 77.8667ZM615.636 72.9602L616.414 72.3321C615.057 70.6503 613.665 69.0032 612.241 67.3916L611.492 68.0537L610.742 68.7159C612.147 70.3054 613.519 71.9297 614.858 73.5884L615.636 72.9602ZM602.57 58.8213L603.257 58.095C600.117 55.1225 596.854 52.301 593.481 49.6358L592.861 50.4204L592.241 51.2051C595.568 53.8335 598.785 56.6161 601.883 59.5475L602.57 58.8213ZM582.442 42.9176L582.99 42.0808C579.379 39.7176 575.667 37.5189 571.868 35.4902L571.397 36.3724L570.926 37.2545C574.673 39.2552 578.333 41.4237 581.895 43.7543L582.442 42.9176ZM559.812 30.8363L560.203 29.9157C556.238 28.2333 552.195 26.7266 548.088 25.4014L547.781 26.3531L547.474 27.3047C551.525 28.6117 555.511 30.0976 559.422 31.7568L559.812 30.8363ZM535.399 22.9589L535.62 21.9836C531.427 21.0332 527.182 20.267 522.897 19.6906L522.764 20.6816L522.63 21.6727C526.857 22.2412 531.043 22.9968 535.178 23.9342L535.399 22.9589ZM509.976 19.5392L510.02 18.5402C507.872 18.4444 505.716 18.3962 503.555 18.3962V19.3962V20.3962C505.686 20.3962 507.812 20.4438 509.931 20.5382L509.976 19.5392ZM503.555 19.3962V18.3962H496.638V19.3962V20.3962H503.555V19.3962ZM482.806 19.3962V18.3962H468.973V19.3962V20.3962H482.806V19.3962ZM455.14 19.3962V18.3962H441.307V19.3962V20.3962H455.14V19.3962ZM427.475 19.3962V18.3962H413.642V19.3962V20.3962H427.475V19.3962ZM399.809 19.3962V18.3962H385.977V19.3962V20.3962H399.809V19.3962ZM372.144 19.3962V18.3962H358.311V19.3962V20.3962H372.144V19.3962ZM344.479 19.3962V18.3962H330.646V19.3962V20.3962H344.479V19.3962ZM316.813 19.3962V18.3962H302.981V19.3962V20.3962H316.813V19.3962ZM289.148 19.3962V18.3962H275.315V19.3962V20.3962H289.148V19.3962ZM261.482 19.3962V18.3962H247.65V19.3962V20.3962H261.482V19.3962ZM233.817 19.3962V18.3962H219.984V19.3962V20.3962H233.817V19.3962ZM206.152 19.3962V18.3962H192.319V19.3962V20.3962H206.152V19.3962ZM178.486 19.3962V18.3962H171.57V19.3962V20.3962H178.486V19.3962ZM171.57 19.3962V18.3962C169.338 18.3962 167.118 18.4442 164.909 18.539L164.952 19.5381L164.995 20.5372C167.175 20.4436 169.367 20.3962 171.57 20.3962V19.3962ZM151.774 20.6774L151.644 19.6858C147.212 20.2639 142.839 21.0324 138.534 21.9826L138.75 22.9591L138.966 23.9356C143.213 22.9979 147.529 22.2395 151.903 21.669L151.774 20.6774ZM125.978 26.3732L125.678 25.4194C121.424 26.7592 117.251 28.2804 113.168 29.9737L113.551 30.8975L113.934 31.8212C117.964 30.1502 122.081 28.6491 126.279 27.327L125.978 26.3732ZM101.568 36.4944L101.106 35.6078C97.1609 37.6656 93.3172 39.8908 89.5842 42.2739L90.1223 43.1168L90.6603 43.9597C94.3445 41.6078 98.1378 39.4118 102.031 37.381L101.568 36.4944ZM79.2966 50.7107L78.6873 49.9178C75.1651 52.6244 71.7645 55.4813 68.495 58.4788L69.1708 59.2159L69.8466 59.953C73.0735 56.9945 76.4298 54.1749 79.9059 51.5036L79.2966 50.7107ZM59.8197 68.567L59.0826 67.8912C56.085 71.1608 53.2282 74.5614 50.5215 78.0835L51.3145 78.6928L52.1074 79.3022C54.7787 75.826 57.5983 72.4697 60.5568 69.2428L59.8197 68.567ZM43.7205 89.5185L42.8777 88.9804C40.4945 92.7135 38.2693 96.5572 36.2115 100.502L37.0981 100.965L37.9848 101.427C40.0155 97.534 42.2115 93.7407 44.5634 90.0566L43.7205 89.5185ZM31.5012 112.947L30.5775 112.564C28.8841 116.648 27.363 120.821 26.0231 125.074L26.9769 125.374L27.9307 125.675C29.2529 121.478 30.7539 117.36 32.4249 113.33L31.5012 112.947ZM23.5628 138.146L22.5864 137.931C21.6361 142.235 20.8677 146.608 20.2895 151.04L21.2811 151.17L22.2727 151.299C22.8433 146.925 23.6016 142.61 24.5393 138.362L23.5628 138.146ZM20.1419 164.348L19.1428 164.305C19.0479 166.514 19 168.734 19 170.966H20H21C21 168.763 21.0473 166.571 21.141 164.391L20.1419 164.348ZM615.636 72.9602L617.192 71.7039L615.636 72.9602ZM20 170.966H18V177.853H20H22V170.966H20ZM20 191.625H18V205.398H20H22V191.625H20ZM20 219.171H18V232.944H20H22V219.171H20ZM20 246.717H18V260.49H20H22V246.717H20ZM20 274.262H18V288.035H20H22V274.262H20ZM20 301.808H18V315.581H20H22V301.808H20ZM20 329.354H18V343.127H20H22V329.354H20ZM20 356.899H18V370.672H20H22V356.899H20ZM20 384.445H18V398.218H20H22V384.445H20ZM20 411.991H18V425.764H20H22V411.991H20ZM20 439.536H18V453.309H20H22V439.536H20ZM20 467.082H18V480.855H20H22V467.082H20ZM20 494.628H18V508.401H20H22V494.628H20ZM20 522.173H18V535.946H20H22V522.173H20ZM20 549.719H18V563.492H20H22V549.719H20ZM20 577.265H18V591.038H20H22V577.265H20ZM20 604.81H18V618.583H20H22V604.81H20ZM20 632.356H18V646.129H20H22V632.356H20ZM20 659.902H18V673.674H20H22V659.902H20ZM20 687.447H18V701.22H20H22V687.447H20ZM20 714.993H18V728.766H20H22V714.993H20ZM20 742.539H18V756.311H20H22V742.539H20ZM20 770.084H18V783.857H20H22V770.084H20ZM20 797.63H18V811.403H20H22V797.63H20ZM20 825.176H18V838.948H20H22V825.176H20ZM20 852.721H18V866.494H20H22V852.721H20ZM20 880.267H18V894.04H20H22V880.267H20ZM20 907.813H18V914.699H20H22V907.813H20ZM20 914.699H18C18 916.945 18.0482 919.18 18.1437 921.403L20.1419 921.317L22.14 921.231C22.047 919.066 22 916.888 22 914.699H20ZM21.2811 934.496L19.2979 934.754C19.8799 939.216 20.6534 943.617 21.6099 947.95L23.5629 947.519L25.5158 947.088C24.5844 942.869 23.8311 938.582 23.2643 934.237L21.2811 934.496ZM26.9769 960.291L25.0693 960.892C26.4181 965.174 27.9492 969.374 29.6538 973.485L31.5012 972.718L33.3487 971.952C31.6888 967.95 30.1978 963.859 28.8845 959.69L26.9769 960.291ZM37.0982 984.701L35.3249 985.626C37.3963 989.597 39.6361 993.466 42.0348 997.223L43.7206 996.147L45.4063 995.071C43.07 991.411 40.8886 987.643 38.8714 983.776L37.0982 984.701ZM51.3145 1006.97L49.7287 1008.19C52.4529 1011.74 55.3285 1015.16 58.3455 1018.45L59.8197 1017.1L61.2939 1015.75C58.355 1012.54 55.554 1009.21 52.9003 1005.75L51.3145 1006.97ZM69.1708 1026.45L67.8193 1027.92C71.1101 1030.94 74.5329 1033.82 78.078 1036.54L79.2967 1034.95L80.5153 1033.37C77.0621 1030.72 73.728 1027.91 70.5224 1024.98L69.1708 1026.45ZM90.1223 1042.55L89.0461 1044.23C92.8036 1046.63 96.6726 1048.87 100.643 1050.94L101.568 1049.17L102.493 1047.4C98.6263 1045.38 94.8582 1043.2 91.1985 1040.86L90.1223 1042.55ZM113.551 1054.77L112.785 1056.62C116.895 1058.32 121.096 1059.85 125.377 1061.2L125.978 1059.29L126.579 1057.38C122.41 1056.07 118.32 1054.58 114.317 1052.92L113.551 1054.77ZM138.75 1062.71L138.319 1064.66C142.652 1065.62 147.053 1066.39 151.515 1066.97L151.774 1064.99L152.032 1063.01C147.687 1062.44 143.401 1061.68 139.181 1060.75L138.75 1062.71ZM164.952 1066.13L164.866 1068.13C167.089 1068.22 169.324 1068.27 171.57 1068.27V1066.27V1064.27C169.381 1064.27 167.204 1064.22 165.038 1064.13L164.952 1066.13ZM171.57 1066.27V1068.27H178.523V1066.27V1064.27H171.57V1066.27ZM192.429 1066.27V1068.27H206.335V1066.27V1064.27H192.429V1066.27ZM220.241 1066.27V1068.27H234.147V1066.27V1064.27H220.241V1066.27ZM248.053 1066.27V1068.27H261.959V1066.27V1064.27H248.053V1066.27ZM275.865 1066.27V1068.27H289.772V1066.27V1064.27H275.865V1066.27ZM303.678 1066.27V1068.27H317.584V1066.27V1064.27H303.678V1066.27ZM331.49 1066.27V1068.27H345.396V1066.27V1064.27H331.49V1066.27ZM359.302 1066.27V1068.27H373.208V1066.27V1064.27H359.302V1066.27ZM387.114 1066.27V1068.27H401.02V1066.27V1064.27H387.114V1066.27ZM414.926 1066.27V1068.27H428.832V1066.27V1064.27H414.926V1066.27ZM442.738 1066.27V1068.27H456.644V1066.27V1064.27H442.738V1066.27ZM470.55 1066.27V1068.27H484.456V1066.27V1064.27H470.55V1066.27ZM498.362 1066.27V1068.27H512.268V1066.27V1064.27H498.362V1066.27ZM526.174 1066.27V1068.27H540.08V1066.27V1064.27H526.174V1066.27ZM553.986 1066.27V1068.27H567.892V1066.27V1064.27H553.986V1066.27ZM581.798 1066.27V1068.27H595.704V1066.27V1064.27H581.798V1066.27ZM609.611 1066.27V1068.27H623.517V1066.27V1064.27H609.611V1066.27ZM637.423 1066.27V1068.27H651.329V1066.27V1064.27H637.423V1066.27ZM665.235 1066.27V1068.27H679.141V1066.27V1064.27H665.235V1066.27ZM693.047 1066.27V1068.27H706.953V1066.27V1064.27H693.047V1066.27ZM720.859 1066.27V1068.27H734.765V1066.27V1064.27H720.859V1066.27ZM748.671 1066.27V1068.27H762.577V1066.27V1064.27H748.671V1066.27ZM776.483 1066.27V1068.27H790.389V1066.27V1064.27H776.483V1066.27ZM804.295 1066.27V1068.27H818.201V1066.27V1064.27H804.295V1066.27ZM832.107 1066.27V1068.27H846.013V1066.27V1064.27H832.107V1066.27ZM859.919 1066.27V1068.27H873.826V1066.27V1064.27H859.919V1066.27ZM887.732 1066.27V1068.27H901.638V1066.27V1064.27H887.732V1066.27ZM915.544 1066.27V1068.27H929.45V1066.27V1064.27H915.544V1066.27ZM943.356 1066.27V1068.27H957.262V1066.27V1064.27H943.356V1066.27ZM971.168 1066.27V1068.27H985.074V1066.27V1064.27H971.168V1066.27ZM998.98 1066.27V1068.27H1012.89V1066.27V1064.27H998.98V1066.27ZM1026.79 1066.27V1068.27H1040.7V1066.27V1064.27H1026.79V1066.27ZM1054.6 1066.27V1068.27H1068.51V1066.27V1064.27H1054.6V1066.27ZM1082.42 1066.27V1068.27H1096.32V1066.27V1064.27H1082.42V1066.27ZM1110.23 1066.27V1068.27H1124.13V1066.27V1064.27H1110.23V1066.27ZM1138.04 1066.27V1068.27H1151.95V1066.27V1064.27H1138.04V1066.27ZM1165.85 1066.27V1068.27H1179.76V1066.27V1064.27H1165.85V1066.27ZM1193.67 1066.27V1068.27H1207.57V1066.27V1064.27H1193.67V1066.27ZM1221.48 1066.27V1068.27H1228.43V1066.27V1064.27H1221.48V1066.27ZM1228.43 1066.27V1068.27C1230.68 1068.27 1232.91 1068.22 1235.13 1068.13L1235.05 1066.13L1234.96 1064.13C1232.8 1064.22 1230.62 1064.27 1228.43 1064.27V1066.27ZM1248.23 1064.99L1248.49 1066.97C1252.95 1066.39 1257.35 1065.62 1261.68 1064.66L1261.25 1062.71L1260.82 1060.75C1256.6 1061.68 1252.31 1062.44 1247.97 1063.01L1248.23 1064.99ZM1274.02 1059.29L1274.62 1061.2C1278.9 1059.85 1283.1 1058.32 1287.22 1056.62L1286.45 1054.77L1285.68 1052.92C1281.68 1054.58 1277.59 1056.07 1273.42 1057.38L1274.02 1059.29ZM1298.43 1049.17L1299.36 1050.94C1303.33 1048.87 1307.2 1046.63 1310.95 1044.23L1309.88 1042.55L1308.8 1040.86C1305.14 1043.2 1301.37 1045.38 1297.51 1047.4L1298.43 1049.17ZM1320.7 1034.95L1321.92 1036.54C1325.47 1033.82 1328.89 1030.94 1332.18 1027.92L1330.83 1026.45L1329.48 1024.98C1326.27 1027.91 1322.94 1030.72 1319.48 1033.37L1320.7 1034.95ZM1340.18 1017.1L1341.65 1018.45C1344.67 1015.16 1347.55 1011.74 1350.27 1008.19L1348.69 1006.97L1347.1 1005.75C1344.45 1009.21 1341.65 1012.54 1338.71 1015.75L1340.18 1017.1ZM1356.28 996.147L1357.97 997.223C1360.36 993.466 1362.6 989.597 1364.68 985.626L1362.9 984.701L1361.13 983.776C1359.11 987.643 1356.93 991.411 1354.59 995.071L1356.28 996.147ZM1368.5 972.719L1370.35 973.485C1372.05 969.374 1373.58 965.174 1374.93 960.892L1373.02 960.291L1371.12 959.69C1369.8 963.859 1368.31 967.95 1366.65 971.952L1368.5 972.719ZM1376.44 947.519L1378.39 947.951C1379.35 943.618 1380.12 939.216 1380.7 934.755L1378.72 934.496L1376.74 934.237C1376.17 938.583 1375.42 942.869 1374.48 947.088L1376.44 947.519ZM1379.86 921.318L1381.86 921.403C1381.95 919.18 1382 916.946 1382 914.699H1380H1378C1378 916.888 1377.95 919.066 1377.86 921.232L1379.86 921.318ZM1380 914.699H1382V907.78H1380H1378V914.699H1380ZM1380 893.941H1382V880.101H1380H1378V893.941H1380ZM1380 866.262H1382V852.423H1380H1378V866.262H1380ZM1380 838.584H1382V824.744H1380H1378V838.584H1380ZM1380 810.905H1382V797.066H1380H1378V810.905H1380ZM1380 783.227H1382V769.387H1380H1378V783.227H1380ZM1380 755.548H1382V741.709H1380H1378V755.548H1380ZM1380 727.87H1382V714.03H1380H1378V727.87H1380ZM1380 700.191H1382V686.352H1380H1378V700.191H1380ZM1380 672.513H1382V658.673H1380H1378V672.513H1380ZM1380 644.834H1382V630.995H1380H1378V644.834H1380ZM1380 617.156H1382V603.316H1380H1378V617.156H1380ZM1380 589.477H1382V575.638H1380H1378V589.477H1380ZM1380 561.799H1382V547.959H1380H1378V561.799H1380ZM1380 534.12H1382V520.281H1380H1378V534.12H1380ZM1380 506.442H1382V492.603H1380H1378V506.442H1380ZM1380 478.763H1382V464.924H1380H1378V478.763H1380ZM1380 451.085H1382V437.246H1380H1378V451.085H1380ZM1380 423.406H1382V409.567H1380H1378V423.406H1380ZM1380 395.728H1382V381.889H1380H1378V395.728H1380ZM1380 368.049H1382V354.21H1380H1378V368.049H1380ZM1380 340.371H1382V326.532H1380H1378V340.371H1380ZM1380 312.693H1382V298.853H1380H1378V312.693H1380ZM1380 285.014H1382V278.094H1380H1378V285.014H1380ZM1380 278.094H1382C1382 275.848 1381.95 273.613 1381.86 271.39L1379.86 271.476L1377.86 271.562C1377.95 273.728 1378 275.905 1378 278.094H1380ZM1378.72 258.298L1380.7 258.039C1380.12 253.578 1379.35 249.176 1378.39 244.843L1376.44 245.274L1374.48 245.705C1375.42 249.925 1376.17 254.211 1376.74 258.556L1378.72 258.298ZM1373.02 232.502L1374.93 231.901C1373.58 227.62 1372.05 223.419 1370.35 219.309L1368.5 220.075L1366.65 220.841C1368.31 224.844 1369.8 228.934 1371.12 233.103L1373.02 232.502ZM1362.9 208.093L1364.68 207.168C1362.6 203.197 1360.36 199.328 1357.97 195.57L1356.28 196.646L1354.59 197.723C1356.93 201.382 1359.11 205.15 1361.13 209.018L1362.9 208.093ZM1348.69 185.821L1350.27 184.602C1347.55 181.057 1344.67 177.634 1341.65 174.343L1340.18 175.695L1338.71 177.047C1341.65 180.252 1344.45 183.586 1347.1 187.039L1348.69 185.821ZM1330.83 166.344L1332.18 164.87C1328.89 161.853 1325.47 158.977 1321.92 156.253L1320.7 157.839L1319.48 159.424C1322.94 162.078 1326.27 164.879 1329.48 167.818L1330.83 166.344ZM1309.88 150.245L1310.95 148.559C1307.2 146.16 1303.33 143.92 1299.36 141.849L1298.43 143.622L1297.51 145.396C1301.37 147.413 1305.14 149.594 1308.8 151.93L1309.88 150.245ZM1286.45 138.025L1287.22 136.178C1283.1 134.473 1278.9 132.942 1274.62 131.594L1274.02 133.501L1273.42 135.409C1277.59 136.722 1281.68 138.213 1285.68 139.873L1286.45 138.025ZM1261.25 130.087L1261.68 128.134C1257.35 127.178 1252.95 126.404 1248.48 125.822L1248.23 127.805L1247.97 129.788C1252.31 130.355 1256.6 131.109 1260.82 132.04L1261.25 130.087ZM1235.05 126.666L1235.13 124.668C1232.91 124.572 1230.68 124.524 1228.43 124.524V126.524V128.524C1230.62 128.524 1232.8 128.571 1234.96 128.664L1235.05 126.666ZM1228.43 126.524V124.524H1221.48V126.524V128.524H1228.43V126.524ZM1207.57 126.524V124.524H1193.66V126.524V128.524H1207.57V126.524ZM1179.75 126.524V124.524H1165.84V126.524V128.524H1179.75V126.524ZM1151.93 126.524V124.524H1138.02V126.524V128.524H1151.93V126.524ZM1124.11 126.524V124.524H1110.21V126.524V128.524H1124.11V126.524ZM1096.3 126.524V124.524H1082.39V126.524V128.524H1096.3V126.524ZM1068.48 126.524V124.524H1054.57V126.524V128.524H1068.48V126.524ZM1040.66 126.524V124.524H1026.75V126.524V128.524H1040.66V126.524ZM1012.85 126.524V124.524H998.937V126.524V128.524H1012.85V126.524ZM985.028 126.524V124.524H971.12V126.524V128.524H985.028V126.524ZM957.211 126.524V124.524H943.302V126.524V128.524H957.211V126.524ZM929.394 126.524V124.524H915.485V126.524V128.524H929.394V126.524ZM901.576 126.524V124.524H887.668V126.524V128.524H901.576V126.524ZM873.759 126.524V124.524H859.85V126.524V128.524H873.759V126.524ZM845.942 126.524V124.524H832.033V126.524V128.524H845.942V126.524ZM818.124 126.524V124.524H804.216V126.524V128.524H818.124V126.524ZM790.307 126.524V124.524H776.398V126.524V128.524H790.307V126.524ZM762.49 126.524V124.524H748.581V126.524V128.524H762.49V126.524ZM734.672 126.524V124.524H727.718V126.524V128.524H734.672V126.524ZM727.718 126.524V124.524C725.601 124.524 723.49 124.477 721.386 124.383L721.297 126.381L721.208 128.379C723.371 128.476 725.542 128.524 727.718 128.524V126.524ZM708.509 125.239L708.776 123.257C704.579 122.692 700.422 121.942 696.316 121.011L695.874 122.962L695.432 124.912C699.653 125.869 703.927 126.641 708.242 127.221L708.509 125.239ZM683.491 119.567L684.105 117.664C680.083 116.366 676.125 114.891 672.241 113.243L671.46 115.084L670.679 116.925C674.672 118.619 678.742 120.136 682.877 121.471L683.491 119.567ZM659.876 109.548L660.818 107.784C657.096 105.797 653.462 103.644 649.925 101.329L648.83 103.003L647.735 104.676C651.371 107.056 655.108 109.27 658.934 111.312L659.876 109.548ZM638.411 95.5L639.651 93.9307C636.348 91.3207 633.153 88.5575 630.077 85.6466L628.702 87.0992L627.328 88.5517C630.49 91.5447 633.775 94.3857 637.171 97.0693L638.411 95.5ZM619.781 77.8667L621.28 76.5424C619.885 74.964 618.522 73.351 617.192 71.7039L615.636 72.9602L614.08 74.2165C615.447 75.9098 616.848 77.5682 618.282 79.191L619.781 77.8667ZM615.636 72.9602L617.192 71.7039C615.825 70.0106 614.424 68.3522 612.99 66.7294L611.492 68.0537L609.993 69.378C611.388 70.9564 612.75 72.5694 614.08 74.2165L615.636 72.9602ZM602.57 58.8213L603.945 57.3687C600.783 54.3758 597.498 51.5347 594.101 48.8512L592.861 50.4204L591.621 51.9897C594.925 54.5997 598.12 57.3629 601.195 60.2738L602.57 58.8213ZM582.442 42.9176L583.537 41.2441C579.902 38.8646 576.165 36.6507 572.339 34.6081L571.397 36.3724L570.455 38.1367C574.176 40.1234 577.811 42.2767 581.347 44.5911L582.442 42.9176ZM559.812 30.8363L560.594 28.9951C556.601 27.3011 552.531 25.7841 548.395 24.4497L547.781 26.3531L547.167 28.2564C551.189 29.5542 555.148 31.0298 559.031 32.6774L559.812 30.8363ZM535.399 22.9589L535.841 21.0084C531.619 20.0514 527.345 19.2799 523.03 18.6995L522.764 20.6816L522.497 22.6638C526.694 23.2283 530.851 23.9786 534.956 24.9094L535.399 22.9589ZM509.976 19.5392L510.065 17.5412C507.901 17.4448 505.731 17.3962 503.555 17.3962V19.3962V21.3962C505.671 21.3962 507.783 21.4434 509.887 21.5372L509.976 19.5392ZM503.555 19.3962V17.3962H496.638V19.3962V21.3962H503.555V19.3962ZM482.806 19.3962V17.3962H468.973V19.3962V21.3962H482.806V19.3962ZM455.14 19.3962V17.3962H441.307V19.3962V21.3962H455.14V19.3962ZM427.475 19.3962V17.3962H413.642V19.3962V21.3962H427.475V19.3962ZM399.809 19.3962V17.3962H385.977V19.3962V21.3962H399.809V19.3962ZM372.144 19.3962V17.3962H358.311V19.3962V21.3962H372.144V19.3962ZM344.479 19.3962V17.3962H330.646V19.3962V21.3962H344.479V19.3962ZM316.813 19.3962V17.3962H302.981V19.3962V21.3962H316.813V19.3962ZM289.148 19.3962V17.3962H275.315V19.3962V21.3962H289.148V19.3962ZM261.482 19.3962V17.3962H247.65V19.3962V21.3962H261.482V19.3962ZM233.817 19.3962V17.3962H219.984V19.3962V21.3962H233.817V19.3962ZM206.152 19.3962V17.3962H192.319V19.3962V21.3962H206.152V19.3962ZM178.486 19.3962V17.3962H171.57V19.3962V21.3962H178.486V19.3962ZM171.57 19.3962V17.3962C169.324 17.3962 167.089 17.4445 164.866 17.54L164.952 19.5381L165.038 21.5363C167.203 21.4432 169.381 21.3962 171.57 21.3962V19.3962ZM151.774 20.6774L151.515 18.6942C147.053 19.2761 142.652 20.0496 138.319 21.0061L138.75 22.9591L139.181 24.9121C143.401 23.9806 147.687 23.2274 152.032 22.6606L151.774 20.6774ZM125.978 26.3732L125.377 24.4656C121.096 25.8143 116.895 27.3455 112.785 29.05L113.551 30.8975L114.317 32.7449C118.32 31.0851 122.41 29.5941 126.579 28.2808L125.978 26.3732ZM101.568 36.4944L100.643 34.7211C96.6725 36.7925 92.8036 39.0323 89.0461 41.431L90.1223 43.1168L91.1984 44.8026C94.8581 42.4662 98.6262 40.2849 102.493 38.2676L101.568 36.4944ZM79.2966 50.7107L78.0779 49.1249C74.5328 51.8491 71.11 54.7246 67.8192 57.7417L69.1708 59.2159L70.5224 60.6901C73.728 57.7512 77.0621 54.9502 80.5153 52.2965L79.2966 50.7107ZM59.8197 68.567L58.3455 67.2155C55.3284 70.5063 52.4529 73.9291 49.7286 77.4742L51.3145 78.6928L52.9003 79.9115C55.5539 76.4583 58.3549 73.1242 61.2939 69.9186L59.8197 68.567ZM43.7205 89.5185L42.0348 88.4423C39.636 92.1998 37.3962 96.0687 35.3249 100.04L37.0981 100.965L38.8714 101.89C40.8886 98.0224 43.07 94.2544 45.4063 90.5947L43.7205 89.5185ZM31.5012 112.947L29.6538 112.181C27.9492 116.291 26.418 120.492 25.0693 124.773L26.9769 125.374L28.8845 125.975C30.1978 121.806 31.6888 117.716 33.3487 113.713L31.5012 112.947ZM23.5628 138.146L21.6099 137.715C20.6534 142.048 19.8799 146.45 19.2979 150.911L21.2811 151.17L23.2643 151.429C23.8311 147.083 24.5844 142.797 25.5158 138.577L23.5628 138.146ZM20.1419 164.348L18.1437 164.262C18.0482 166.485 18 168.72 18 170.966H20H22C22 168.777 22.047 166.6 22.14 164.434L20.1419 164.348Z" fill="#F5F5F5" fill-opacity="0.6" mask="url(#path-3-inside-2_559_934)"/>
<defs>
<clipPath id="bgblur_0_559_934_clip_path" transform="translate(154 154)"><path d="M513.925 0C557.167 0 598.271 18.8108 626.537 51.5361C654.803 84.2615 695.907 103.072 739.15 103.072H1231.61C1324.61 103.072 1400 178.461 1400 271.457V909.278C1400 1002.27 1324.61 1077.66 1231.61 1077.66H168.385C75.3886 1077.66 0 1002.27 0 909.278V168.385C0 75.3884 75.3885 0 168.385 0H513.925Z"/>
</clipPath><linearGradient id="paint0_linear_559_934" x1="700" y1="1077.66" x2="700" y2="0" gradientUnits="userSpaceOnUse">
<stop stop-color="#E88F01"/>
<stop offset="1" stop-color="#FFE7BF"/>
</linearGradient>
</defs>
</svg>
