<svg width="1400" height="1078" viewBox="0 0 1400 1078" fill="none" xmlns="http://www.w3.org/2000/svg">
<g opacity="0.3">
<mask id="path-1-inside-1_559_908" fill="white">
<path d="M513.925 0C557.167 0 598.271 18.8108 626.537 51.5361C654.803 84.2615 695.907 103.072 739.15 103.072H1231.61C1324.61 103.072 1400 178.461 1400 271.457V909.278C1400 1002.27 1324.61 1077.66 1231.61 1077.66H168.385C75.3886 1077.66 0 1002.27 0 909.278V168.385C0 75.3884 75.3885 0 168.385 0H513.925Z"/>
</mask>
<path d="M513.925 0C557.167 0 598.271 18.8108 626.537 51.5361C654.803 84.2615 695.907 103.072 739.15 103.072H1231.61C1324.61 103.072 1400 178.461 1400 271.457V909.278C1400 1002.27 1324.61 1077.66 1231.61 1077.66H168.385C75.3886 1077.66 0 1002.27 0 909.278V168.385C0 75.3884 75.3885 0 168.385 0H513.925Z" fill="url(#paint0_linear_559_908)"/>
<path d="M739.15 103.072V112.781H1231.61V103.072V93.3635H739.15V103.072ZM1400 271.457H1390.29V909.278H1400H1409.71V271.457H1400ZM1231.61 1077.66V1067.95H168.385V1077.66V1087.37H1231.61V1077.66ZM0 909.278H9.70874V168.385H0H-9.70874V909.278H0ZM168.385 0V9.70874H513.925V0V-9.70874H168.385V0ZM0 168.385H9.70874C9.70874 80.7504 80.7505 9.70874 168.385 9.70874V0V-9.70874C70.0266 -9.70874 -9.70874 70.0264 -9.70874 168.385H0ZM168.385 1077.66V1067.95C80.7506 1067.95 9.70874 996.913 9.70874 909.278H0H-9.70874C-9.70874 1007.64 70.0266 1087.37 168.385 1087.37V1077.66ZM1400 909.278H1390.29C1390.29 996.912 1319.25 1067.95 1231.61 1067.95V1077.66V1087.37C1329.97 1087.37 1409.71 1007.64 1409.71 909.278H1400ZM1231.61 103.072V112.781C1319.25 112.781 1390.29 183.823 1390.29 271.457H1400H1409.71C1409.71 173.099 1329.97 93.3635 1231.61 93.3635V103.072ZM626.537 51.5361L619.19 57.8824C649.3 92.7429 693.086 112.781 739.15 112.781V103.072V93.3635C698.728 93.3635 660.306 75.7801 633.885 45.1899L626.537 51.5361ZM626.537 51.5361L633.885 45.1899C603.774 10.3294 559.989 -9.70874 513.925 -9.70874V0V9.70874C554.346 9.70874 592.768 27.2922 619.19 57.8824L626.537 51.5361Z" fill="#F9F9F9" mask="url(#path-1-inside-1_559_908)"/>
</g>
<defs>
<linearGradient id="paint0_linear_559_908" x1="700" y1="1077.66" x2="700" y2="0" gradientUnits="userSpaceOnUse">
<stop stop-color="#E88F01"/>
<stop offset="1" stop-color="#FFE7BF"/>
</linearGradient>
</defs>
</svg>
