<svg width="30" height="30" viewBox="0 0 30 30" fill="none" xmlns="http://www.w3.org/2000/svg">
<rect x="0.25" y="0.25" width="29.5" height="29.5" rx="14.75" stroke="white" stroke-width="0.5"/>
<path d="M14.7083 12.6963C13.99 12.6963 13.3012 12.9816 12.7933 13.4895C12.2853 13.9975 12 14.6863 12 15.4046C12 16.1229 12.2853 16.8118 12.7933 17.3197C13.3012 17.8276 13.99 18.113 14.7083 18.113C15.4266 18.113 16.1155 17.8276 16.6234 17.3197C17.1313 16.8118 17.4167 16.1229 17.4167 15.4046C17.4167 14.6863 17.1313 13.9975 16.6234 13.4895C16.1155 12.9816 15.4266 12.6963 14.7083 12.6963Z" fill="white"/>
<path fill-rule="evenodd" clip-rule="evenodd" d="M10.3017 7.93696C13.1984 7.61607 16.1216 7.61607 19.0183 7.93696C20.6008 8.11363 21.8767 9.35946 22.0625 10.9478C22.4058 13.885 22.4058 16.8522 22.0625 19.7895C21.8767 21.3778 20.6008 22.6236 19.0192 22.8011C16.1222 23.1221 13.1986 23.1221 10.3017 22.8011C8.71918 22.6236 7.44334 21.3778 7.25751 19.7903C6.91416 16.8528 6.91416 13.8853 7.25751 10.9478C7.44334 9.35946 8.71918 8.11363 10.3017 7.93696ZM18.8267 10.3686C18.6057 10.3686 18.3937 10.4564 18.2374 10.6127C18.0811 10.769 17.9933 10.9809 17.9933 11.202C17.9933 11.423 18.0811 11.6349 18.2374 11.7912C18.3937 11.9475 18.6057 12.0353 18.8267 12.0353C19.0477 12.0353 19.2597 11.9475 19.4159 11.7912C19.5722 11.6349 19.66 11.423 19.66 11.202C19.66 10.9809 19.5722 10.769 19.4159 10.6127C19.2597 10.4564 19.0477 10.3686 18.8267 10.3686ZM10.7017 15.3686C10.7017 14.3188 11.1187 13.312 11.861 12.5697C12.6034 11.8273 13.6102 11.4103 14.66 11.4103C15.7098 11.4103 16.7166 11.8273 17.459 12.5697C18.2013 13.312 18.6183 14.3188 18.6183 15.3686C18.6183 16.4184 18.2013 17.4253 17.459 18.1676C16.7166 18.9099 15.7098 19.327 14.66 19.327C13.6102 19.327 12.6034 18.9099 11.861 18.1676C11.1187 17.4253 10.7017 16.4184 10.7017 15.3686Z" fill="white"/>
</svg>
