<svg width="30" height="30" viewBox="0 0 30 30" fill="none" xmlns="http://www.w3.org/2000/svg">
<rect x="0.25" y="0.25" width="29.5" height="29.5" rx="14.75" stroke="white" stroke-width="0.5"/>
<path d="M10.3333 8.6675C10.3331 9.10953 10.1573 9.53336 9.84459 9.84577C9.53187 10.1582 9.10786 10.3336 8.66583 10.3333C8.22381 10.3331 7.79997 10.1573 7.48757 9.84459C7.17516 9.53187 6.99978 9.10786 7 8.66583C7.00022 8.22381 7.17603 7.79997 7.48874 7.48757C7.80146 7.17516 8.22547 6.99978 8.6675 7C9.10953 7.00022 9.53336 7.17603 9.84577 7.48874C10.1582 7.80146 10.3336 8.22547 10.3333 8.6675ZM10.3833 11.5675L7.05 11.5675L7.05 22.0008L10.3833 22.0008L10.3833 11.5675ZM15.65 11.5675L12.3333 11.5675L12.3333 22.0008L15.6167 22.0008L15.6167 16.5258C15.6167 13.4758 19.5917 13.1925 19.5917 16.5258L19.5917 22.0008L22.8833 22.0008L22.8833 15.3925C22.8833 10.2508 17 10.4425 15.6167 12.9675L15.65 11.5675Z" fill="white"/>
</svg>
