<svg width="30" height="30" viewBox="0 0 30 30" fill="none" xmlns="http://www.w3.org/2000/svg">
<rect x="0.25" y="0.25" width="29.5" height="29.5" rx="14.75" stroke="white" stroke-width="0.5"/>
<path d="M23.6667 12.0529L23.6667 18.8379C23.6667 19.5297 23.402 20.1952 22.9269 20.6981C22.4518 21.2009 21.8023 21.5029 21.1117 21.5421L20.9583 21.5462L9.70833 21.5462C9.01655 21.5463 8.35098 21.2816 7.84814 20.8065C7.34531 20.3314 7.04333 19.6819 7.00417 18.9912L7 18.8379L7 12.0529L15.0433 16.2662C15.1328 16.3131 15.2323 16.3376 15.3333 16.3376C15.4343 16.3376 15.5339 16.3131 15.6233 16.2662L23.6667 12.0529ZM9.70833 8.21289L20.9583 8.21289C21.6297 8.21281 22.2771 8.46205 22.775 8.91228C23.273 9.36251 23.586 9.98163 23.6533 10.6496L15.3333 15.0079L7.01333 10.6496C7.07794 10.0082 7.36921 9.41082 7.83479 8.96494C8.30037 8.51906 8.90973 8.25388 9.55333 8.21706L9.70833 8.21289Z" fill="white"/>
</svg>
