<svg width="866" height="618" viewBox="0 0 866 618" fill="none" xmlns="http://www.w3.org/2000/svg">
<g filter="url(#filter0_f_2_1554)">
<ellipse cx="402" cy="319" rx="114" ry="109" fill="#E7B101"/>
</g>
<g clip-path="url(#clip0_2_1554)">
<rect x="274" y="191" width="269" height="269" rx="85.7681" fill="url(#paint0_linear_2_1554)"/>
<g opacity="0.4">
<g filter="url(#filter1_f_2_1554)">
<path d="M25.9228 275.563C81.523 263.277 733.862 176.213 752.839 262.095C649.583 347.52 685.986 499.597 630.386 511.883C514.095 533.236 435.02 401.453 299.414 404.279C163.809 407.105 -29.6774 287.848 25.9228 275.563Z" fill="#F1AD3E"/>
</g>
<g filter="url(#filter2_f_2_1554)">
<path d="M531.382 245.288C570.501 236.644 613.041 278.638 626.397 339.084C639.753 399.53 649.595 472.088 610.476 480.731C571.357 489.375 489.264 369.385 391.733 355.386C378.376 294.939 492.263 253.931 531.382 245.288Z" fill="#FFD13D"/>
</g>
<g filter="url(#filter3_f_2_1554)">
<path d="M538.673 188.317C565.61 182.365 577.635 230.159 589.286 282.889C600.937 335.619 639.154 438.574 580.866 379.268C528.017 332.616 531.376 340.886 470.006 309.245C458.355 256.515 511.737 194.269 538.673 188.317Z" fill="white"/>
</g>
</g>
</g>
<rect x="271.271" y="188.271" width="274.458" height="274.458" rx="88.4971" stroke="url(#paint1_linear_2_1554)" stroke-width="5.45797"/>
<g clip-path="url(#clip1_2_1554)">
<rect x="363" y="280" width="90" height="90" rx="20" fill="url(#paint2_linear_2_1554)"/>
<g opacity="0.4">
<g filter="url(#filter4_f_2_1554)">
<path d="M380.774 532.834C374.648 508.101 328.304 217.274 366.507 207.811C405.891 253.032 473.508 235.023 479.634 259.756C490.505 311.535 432.451 348.402 435.253 409.031C438.054 469.66 386.901 557.566 380.774 532.834Z" fill="#F1AD3E"/>
</g>
<g filter="url(#filter5_f_2_1554)">
<path d="M361.5 307.067C357.19 289.666 375.493 270.16 402.381 263.5C429.27 256.84 461.615 251.614 465.926 269.016C470.236 286.417 417.491 324.501 412.335 368.289C385.446 374.949 365.811 324.469 361.5 307.067Z" fill="#FFD13D"/>
</g>
<g filter="url(#filter6_f_2_1554)">
<path d="M335.932 304.452C332.964 292.47 354.207 286.549 377.663 280.739C401.119 274.929 446.741 256.666 420.872 283.413C400.603 307.583 404.264 305.986 390.806 333.798C367.35 339.608 338.9 316.435 335.932 304.452Z" fill="white"/>
</g>
</g>
<path fill-rule="evenodd" clip-rule="evenodd" d="M411.03 321.549C409.756 320.697 408.257 320.243 406.725 320.243V312.493C409.79 312.493 412.787 313.402 415.336 315.105C417.885 316.808 419.872 319.229 421.045 322.061C422.218 324.893 422.525 328.01 421.927 331.017C421.329 334.023 419.852 336.785 417.685 338.953C415.517 341.121 412.755 342.597 409.749 343.195C406.742 343.793 403.625 343.486 400.793 342.313C397.961 341.14 395.54 339.153 393.837 336.604C392.134 334.055 391.225 331.058 391.225 327.993H398.975C398.975 329.525 399.429 331.024 400.281 332.298C401.132 333.573 402.343 334.566 403.759 335.153C405.175 335.739 406.733 335.893 408.237 335.594C409.74 335.295 411.121 334.557 412.205 333.473C413.289 332.389 414.027 331.008 414.326 329.505C414.625 328.001 414.471 326.443 413.885 325.027C413.298 323.611 412.305 322.4 411.03 321.549Z" fill="#D4AE4F"/>
<path fill-rule="evenodd" clip-rule="evenodd" d="M398.975 312.493C398.975 313.51 398.774 314.518 398.385 315.458C397.995 316.399 397.424 317.253 396.705 317.973C395.985 318.692 395.131 319.263 394.19 319.653C393.25 320.042 392.242 320.243 391.225 320.243L391.225 327.993C393.26 327.993 395.276 327.592 397.156 326.813C399.037 326.034 400.745 324.892 402.185 323.453C403.624 322.014 404.766 320.305 405.545 318.424C406.324 316.544 406.725 314.528 406.725 312.493L398.975 312.493Z" fill="#D4AE4F"/>
</g>
<rect x="361.5" y="278.5" width="93" height="93" rx="21.5" stroke="url(#paint3_linear_2_1554)" stroke-width="3"/>
<rect x="-2.92796" y="2.92796" width="394.856" height="394.856" rx="126.957" transform="matrix(1 0 0 -1 214 525.856)" stroke="url(#paint4_linear_2_1554)" stroke-width="5.85591"/>
<rect x="666.045" y="583.045" width="515.091" height="515.091" rx="165.335" transform="rotate(180 666.045 583.045)" stroke="url(#paint5_linear_2_1554)" stroke-width="6.0906"/>
<defs>
<filter id="filter0_f_2_1554" x="157.8" y="79.8" width="488.4" height="478.4" filterUnits="userSpaceOnUse" color-interpolation-filters="sRGB">
<feFlood flood-opacity="0" result="BackgroundImageFix"/>
<feBlend mode="normal" in="SourceGraphic" in2="BackgroundImageFix" result="shape"/>
<feGaussianBlur stdDeviation="65.1" result="effect1_foregroundBlur_2_1554"/>
</filter>
<filter id="filter1_f_2_1554" x="-74.2752" y="134.246" width="917.526" height="470.391" filterUnits="userSpaceOnUse" color-interpolation-filters="sRGB">
<feFlood flood-opacity="0" result="BackgroundImageFix"/>
<feBlend mode="normal" in="SourceGraphic" in2="BackgroundImageFix" result="shape"/>
<feGaussianBlur stdDeviation="45.206" result="effect1_foregroundBlur_2_1554"/>
</filter>
<filter id="filter2_f_2_1554" x="328.22" y="181.73" width="372.391" height="361.876" filterUnits="userSpaceOnUse" color-interpolation-filters="sRGB">
<feFlood flood-opacity="0" result="BackgroundImageFix"/>
<feBlend mode="normal" in="SourceGraphic" in2="BackgroundImageFix" result="shape"/>
<feGaussianBlur stdDeviation="31.2149" result="effect1_foregroundBlur_2_1554"/>
</filter>
<filter id="filter3_f_2_1554" x="372.974" y="92.4206" width="334.795" height="400.106" filterUnits="userSpaceOnUse" color-interpolation-filters="sRGB">
<feFlood flood-opacity="0" result="BackgroundImageFix"/>
<feBlend mode="normal" in="SourceGraphic" in2="BackgroundImageFix" result="shape"/>
<feGaussianBlur stdDeviation="47.6968" result="effect1_foregroundBlur_2_1554"/>
</filter>
<filter id="filter4_f_2_1554" x="311.099" y="167.354" width="210.351" height="410.218" filterUnits="userSpaceOnUse" color-interpolation-filters="sRGB">
<feFlood flood-opacity="0" result="BackgroundImageFix"/>
<feBlend mode="normal" in="SourceGraphic" in2="BackgroundImageFix" result="shape"/>
<feGaussianBlur stdDeviation="20.2287" result="effect1_foregroundBlur_2_1554"/>
</filter>
<filter id="filter5_f_2_1554" x="332.936" y="229.299" width="161.176" height="167.528" filterUnits="userSpaceOnUse" color-interpolation-filters="sRGB">
<feFlood flood-opacity="0" result="BackgroundImageFix"/>
<feBlend mode="normal" in="SourceGraphic" in2="BackgroundImageFix" result="shape"/>
<feGaussianBlur stdDeviation="13.968" result="effect1_foregroundBlur_2_1554"/>
</filter>
<filter id="filter6_f_2_1554" x="292.967" y="226.557" width="178.298" height="150.847" filterUnits="userSpaceOnUse" color-interpolation-filters="sRGB">
<feFlood flood-opacity="0" result="BackgroundImageFix"/>
<feBlend mode="normal" in="SourceGraphic" in2="BackgroundImageFix" result="shape"/>
<feGaussianBlur stdDeviation="21.3433" result="effect1_foregroundBlur_2_1554"/>
</filter>
<linearGradient id="paint0_linear_2_1554" x1="408.5" y1="332.701" x2="495.828" y2="496.257" gradientUnits="userSpaceOnUse">
<stop offset="0.205643" stop-color="white"/>
<stop offset="0.694017" stop-color="#F7F7F7"/>
<stop offset="1" stop-color="white"/>
</linearGradient>
<linearGradient id="paint1_linear_2_1554" x1="408.5" y1="191" x2="408.5" y2="395.475" gradientUnits="userSpaceOnUse">
<stop stop-color="white"/>
<stop offset="1" stop-color="#F7F7F7"/>
</linearGradient>
<linearGradient id="paint2_linear_2_1554" x1="408" y1="327.409" x2="408" y2="367.945" gradientUnits="userSpaceOnUse">
<stop offset="0.205643" stop-color="white"/>
<stop offset="0.694017" stop-color="#F7F7F7"/>
<stop offset="1" stop-color="white"/>
</linearGradient>
<linearGradient id="paint3_linear_2_1554" x1="408" y1="280" x2="408" y2="348.412" gradientUnits="userSpaceOnUse">
<stop stop-color="white"/>
<stop offset="1" stop-color="#F7F7F7"/>
</linearGradient>
<linearGradient id="paint4_linear_2_1554" x1="381.053" y1="35.972" x2="125.484" y2="389" gradientUnits="userSpaceOnUse">
<stop stop-color="white"/>
<stop offset="1" stop-color="#F7F7F7"/>
</linearGradient>
<linearGradient id="paint5_linear_2_1554" x1="1134.59" y1="591.746" x2="837.887" y2="1099.01" gradientUnits="userSpaceOnUse">
<stop stop-color="white"/>
<stop offset="1" stop-color="#F7F7F7"/>
</linearGradient>
<clipPath id="clip0_2_1554">
<rect x="274" y="191" width="269" height="269" rx="85.7681" fill="white"/>
</clipPath>
<clipPath id="clip1_2_1554">
<rect x="363" y="280" width="90" height="90" rx="20" fill="white"/>
</clipPath>
</defs>
</svg>
